<svg xmlns="http://www.w3.org/2000/svg" viewBox="0 0 1000 1000"><defs><style>.a{fill:#fc0daa;}.b{fill:#efefef;}.c{fill:#fff;}.d{fill:#f1f2f2;}</style></defs><rect class="a" width="1000" height="1000" rx="100"/><path class="b" d="M545.47,442.75l-64-116.68,61.83-1.14L678,434.64c-42.71,3.09-88.59,6.41-132.53,9.7Z"/><path class="b" d="M594.74,412.33a35.35,35.35,0,0,1-29.69-15.2l-49.72-71.68-33.87.62,64,116.68,0,1.59c43.94-3.29,89.82-6.61,132.53-9.7l-28.65-23.32Z"/><path class="c" d="M943.34,485.72a56.72,56.72,0,0,0-5.72-13.15c-10.07-18.9-37-51.44-101.49-51.13l-2.29,0c-29.33.54-90.57,4.33-160.81,9.16-42.71,3.09-88.59,6.41-132.53,9.7C426.16,449,324.35,457.42,324.35,457.42l-78.84-78.06-46.28.86,24.38,114.23a59.79,59.79,0,0,0,61.76,43.21l301.71-5.59L474.17,675.53l82.5-1.53L751.89,529l130.37-2.41C944.08,525.46,943.34,485.72,943.34,485.72Z"/><path class="c" d="M296.21,519.79a53,53,0,0,1-52.15-39.19L216.9,379.89l-17.67.33,24.38,114.23a59.79,59.79,0,0,0,61.76,43.21l299.54-5.55L608.13,514Z"/><path class="c" d="M908.42,508.45l-141.31,2.62-17.34,18,.34,1.28,1.75-1.32,130.4-2.41c61.82-1.15,61.08-40.89,61.08-40.89a40.54,40.54,0,0,0-1.4-4.13A35.33,35.33,0,0,1,908.42,508.45Z"/><path class="d" d="M200,499.65c-2.77-4.2-169.38,1.76-164.79,6.6C43.79,515.3,206.85,510.05,200,499.65Z"/><path class="d" d="M193.54,461.69c-2.78-4.2-169.39,1.76-164.79,6.61C37.34,477.34,200.4,472.09,193.54,461.69Z"/><path class="d" d="M184.54,423.73c-2.78-4.2-169.39,1.76-164.79,6.61C28.34,439.38,191.4,434.13,184.54,423.73Z"/></svg>